<svg id="icon" xmlns="http://www.w3.org/2000/svg" viewBox="0 0 44 44"><style>.st0{fill:#c5dadc;fill-opacity:0;stroke:#6ec25b;stroke-width:2;stroke-linejoin:round}.st1{enable-background:new}.st2{fill:#fff}</style><circle class="st0" cx="22" cy="22" r="20"/><g class="st1"><path class="st2" d="M26.2 22.8c0 .2-.1.4-.2.5l-3.6 3.6c-.1.1-.3.2-.5.2s-.4-.1-.5-.2l-.4-.4c-.1-.1-.2-.3-.2-.5s.1-.4.2-.5l1.6-1.6h-3.9c-.2 0-.4-.1-.5-.2-.1-.1-.2-.3-.2-.5v-.7c0-.2.1-.4.2-.5.1-.1.3-.2.5-.2h3.9L21 20.2c-.1-.1-.2-.3-.2-.5s.1-.4.2-.5l.4-.4c.1-.1.3-.2.5-.2s.4.1.5.2l3.6 3.6c.1 0 .2.2.2.4z"/></g></svg>