<svg xmlns="http://www.w3.org/2000/svg" viewBox="0 0 8.21 8.69"><defs><style>.cls-1{isolation:isolate}.cls-2{fill:#c5dadc}</style></defs><title>Asset 1</title><g id="Layer_2" data-name="Layer 2"><g class="cls-1" id="Layer_1-2" data-name="Layer 1"><path class="cls-2" d="M.21 3.84L3.84.21A.7.7 0 0 1 4.35 0a.69.69 0 0 1 .5.21l.42.42a.66.66 0 0 1 .21.5.66.66 0 0 1-.21.5L3.63 3.28h3.93a.59.59 0 0 1 .44.21.74.74 0 0 1 .18.5v.71a.74.74 0 0 1-.18.5.59.59 0 0 1-.47.21h-3.9l1.64 1.64a.71.71 0 0 1 0 1l-.42.42a.71.71 0 0 1-.5.21.72.72 0 0 1-.51-.21L.21 4.86A.69.69 0 0 1 0 4.35a.66.66 0 0 1 .21-.51z"/></g></g></svg>