<svg xmlns="http://www.w3.org/2000/svg" viewBox="0 0 8.21 8.69"><defs><style>.cls-1{isolation:isolate;}.cls-2{fill:#c5dadc;}</style></defs><title>arrow-next_1</title><g id="Layer_2" data-name="Layer 2"><path class="cls-1 cls-2" d="M8.21 4.35a.69.69 0 0 1-.21.51L4.38 8.49a.72.72 0 0 1-1 0l-.42-.42a.71.71 0 0 1 0-1l1.62-1.65H.65a.6.6 0 0 1-.47-.21A.74.74 0 0 1 0 4.7V4a.75.75 0 0 1 .18-.5.6.6 0 0 1 .47-.21h3.93L2.95 1.63a.66.66 0 0 1-.21-.5.66.66 0 0 1 .21-.5l.41-.42a.71.71 0 0 1 1 0L8 3.84a.66.66 0 0 1 .21.51z" id="Layer_1-2" data-name="Layer 1"/></g></svg>