<svg xmlns="http://www.w3.org/2000/svg" viewBox="0 0 126.8 38.74" width="127" height="40"><defs><style>.cls-1{fill:#fff;}.cls-2{fill:#0bb4ce;}.cls-3{isolation:isolate;}</style></defs><title>consultingpress-logo-light-blue</title><g id="consulting"><path class="cls-1" d="M2.34 15.16a6.66 6.66 0 0 1 0-8.73A5.7 5.7 0 0 1 6.55 4.8a6.11 6.11 0 0 1 3.63 1.06 5 5 0 0 1 2 3H8.29a1.71 1.71 0 0 0-1.65-1 1.92 1.92 0 0 0-1.7.81 4.36 4.36 0 0 0 0 4.26 1.85 1.85 0 0 0 1.63.81 2 2 0 0 0 1.05-.23 1.94 1.94 0 0 0 .67-.82h3.89a5.21 5.21 0 0 1-2 3 5.92 5.92 0 0 1-3.61 1.11 5.68 5.68 0 0 1-4.23-1.64zM16.16 15.14a5.7 5.7 0 0 1-1.77-4.37 5.62 5.62 0 0 1 1.76-4.34 6.66 6.66 0 0 1 8.73 0 5.63 5.63 0 0 1 1.75 4.34 5.75 5.75 0 0 1-1.74 4.37 6.06 6.06 0 0 1-4.35 1.66 6.17 6.17 0 0 1-4.38-1.66zm6.1-2.16a3.07 3.07 0 0 0 .71-2.18 3 3 0 0 0-.73-2.17 2.37 2.37 0 0 0-1.74-.75 2.33 2.33 0 0 0-1.73.75 3.6 3.6 0 0 0 0 4.36 2.38 2.38 0 0 0 1.75.76 2.28 2.28 0 0 0 1.74-.77zM33.58 4.93v1.72a3.84 3.84 0 0 1 3.55-1.85 4.25 4.25 0 0 1 3.27 1.34 5.16 5.16 0 0 1 1.25 3.65v6.86h-3.57v-6.36a2.42 2.42 0 0 0-.6-1.75 2.5 2.5 0 0 0-3.3 0 2.42 2.42 0 0 0-.6 1.75v6.36H30V4.93zM44.94 8.46a3.2 3.2 0 0 1 1.32-2.6 5.61 5.61 0 0 1 3.58-1.05 6 6 0 0 1 3.64 1A3.54 3.54 0 0 1 55 8.65h-3.67a1 1 0 0 0-.42-.83 2.08 2.08 0 0 0-1.07-.22q-1.41 0-1.41.86t1.72 1.07a14 14 0 0 1 3.17.9A2.75 2.75 0 0 1 55 13.08a3.19 3.19 0 0 1-1.41 2.68 5.81 5.81 0 0 1-3.55 1 6.18 6.18 0 0 1-3.57-1 3.58 3.58 0 0 1-1.55-2.89h3.67q.15 1.07 1.51 1.07a1.74 1.74 0 0 0 1-.29.89.89 0 0 0 .41-.76q0-.46-.68-.74a9.31 9.31 0 0 0-1.65-.46q-1-.19-1.94-.47a3.71 3.71 0 0 1-1.66-1 2.53 2.53 0 0 1-.64-1.76zM66.4 4.93H70v11.72h-3.6v-1.72a3.83 3.83 0 0 1-3.55 1.85 4.25 4.25 0 0 1-3.27-1.34 5.15 5.15 0 0 1-1.25-3.65V4.93h3.57v6.36a2.42 2.42 0 0 0 .6 1.75 2.5 2.5 0 0 0 3.3 0 2.42 2.42 0 0 0 .6-1.75zM74.19 16.65V1.11h3.59v15.54zM87 13.65h1.28v3h-1.83a4.76 4.76 0 0 1-3.06-.87 3.64 3.64 0 0 1-1.08-3V7.91h-1.09v-3h1.09V2.08h3.59v2.86h2.35v3H85.9v4.87q-.03.84 1.1.84zM95 3.65a2.16 2.16 0 1 1 .61-1.5 2 2 0 0 1-.61 1.5zm-3.28 13V4.93h3.59v11.72zM103.13 4.93v1.72a3.83 3.83 0 0 1 3.55-1.85 4.25 4.25 0 0 1 3.27 1.34 5.16 5.16 0 0 1 1.25 3.65v6.86h-3.57v-6.36a2.42 2.42 0 0 0-.6-1.75 2.5 2.5 0 0 0-3.3 0 2.42 2.42 0 0 0-.6 1.75v6.36h-3.59V4.93zM116 15.12a6.75 6.75 0 0 1 0-8.62 5 5 0 0 1 3.79-1.69 4 4 0 0 1 3.43 1.66V4.93h3.59v11.66a6.24 6.24 0 0 1-1.34 4.1 4.34 4.34 0 0 1-1.84 1.3 8.57 8.57 0 0 1-7-.63 4.31 4.31 0 0 1-1.79-3.34h3.53q.5 1.32 2.52 1.32a2.2 2.2 0 0 0 1.64-.66 2.89 2.89 0 0 0 .65-2.09v-1.64a4.06 4.06 0 0 1-3.49 1.85 4.91 4.91 0 0 1-3.69-1.68zm6.45-2.18a2.85 2.85 0 0 0 .78-2.14 2.82 2.82 0 0 0-.78-2.13 2.5 2.5 0 0 0-3.57 0 2.85 2.85 0 0 0-.78 2.14 2.81 2.81 0 0 0 .78 2.13 2.5 2.5 0 0 0 3.57 0z"/></g><g id="PRESS"><path class="cls-2" d="M48.32 32.81a2.66 2.66 0 0 1-.61 1.64 2.28 2.28 0 0 1-1 .67 4.05 4.05 0 0 1-1.52.26H44v3.27h-2.1v-8.42h3.32a3.23 3.23 0 0 1 2.28.76 2.4 2.4 0 0 1 .82 1.82zm-4.37 1h1.27a1 1 0 0 0 .74-.28 1 1 0 0 0 .27-.73 1 1 0 0 0-.28-.74 1 1 0 0 0-.73-.29H44zM63.61 35.37v3.28h-2.05v-8.42h3.32a3.23 3.23 0 0 1 2.28.76 2.4 2.4 0 0 1 .82 1.82 2.62 2.62 0 0 1-.44 1.43 2.42 2.42 0 0 1-1.45 1l2.06 3.43h-2.4l-1.9-3.28zm0-3.59v2h1.27a1 1 0 0 0 .74-.28 1 1 0 0 0 .27-.73 1 1 0 0 0-.28-.74 1 1 0 0 0-.73-.29zM86.67 30.2v1.56h-3v1.81h2.69v1.56h-2.69v2h3v1.52h-5.1V30.2zM103.29 31.73a1 1 0 0 0-.63.2.72.72 0 0 0-.25.59.85.85 0 0 0 .23.62 1.49 1.49 0 0 0 .59.36q.37.13.82.24a9.28 9.28 0 0 1 .89.28 3.94 3.94 0 0 1 .81.4 1.76 1.76 0 0 1 .59.68 2.25 2.25 0 0 1 .23 1.05 2.35 2.35 0 0 1-.87 1.83 3.35 3.35 0 0 1-2.29.76 3.6 3.6 0 0 1-2.29-.68 2.33 2.33 0 0 1-.87-1.94h2.18a1 1 0 0 0 1 1 1 1 0 0 0 .7-.23.77.77 0 0 0 .25-.59.8.8 0 0 0-.23-.59 1.59 1.59 0 0 0-.59-.36q-.37-.13-.82-.25a8.23 8.23 0 0 1-.89-.28 4.38 4.38 0 0 1-.81-.4 1.71 1.71 0 0 1-.59-.67 2.22 2.22 0 0 1-.23-1 2.3 2.3 0 0 1 .88-1.88 3.44 3.44 0 0 1 2.24-.71 3.63 3.63 0 0 1 2.2.62 2.35 2.35 0 0 1 .88 1.95h-2.23a1.13 1.13 0 0 0-.29-.7.85.85 0 0 0-.61-.3zM123.06 31.73a1 1 0 0 0-.63.2.72.72 0 0 0-.25.59.85.85 0 0 0 .23.62 1.48 1.48 0 0 0 .59.36q.37.13.82.24a9.23 9.23 0 0 1 .89.28 3.94 3.94 0 0 1 .81.4 1.76 1.76 0 0 1 .59.68 2.25 2.25 0 0 1 .23 1.05 2.35 2.35 0 0 1-.87 1.83 3.35 3.35 0 0 1-2.29.76 3.6 3.6 0 0 1-2.29-.68 2.33 2.33 0 0 1-.87-1.94h2.18a1 1 0 0 0 1 1 1 1 0 0 0 .7-.23.77.77 0 0 0 .25-.59.8.8 0 0 0-.15-.65 1.59 1.59 0 0 0-.59-.36q-.37-.13-.82-.25a8.23 8.23 0 0 1-.89-.28 4.36 4.36 0 0 1-.81-.4 1.71 1.71 0 0 1-.59-.67 2.22 2.22 0 0 1-.23-1 2.3 2.3 0 0 1 .88-1.88 3.45 3.45 0 0 1 2.24-.71 3.63 3.63 0 0 1 2.2.62 2.34 2.34 0 0 1 .88 1.95H124a1.13 1.13 0 0 0-.29-.7.85.85 0 0 0-.65-.24z"/></g><g id="border" class="cls-3"><path class="cls-2" d="M0 33.65h29v1H0z" id="border-2" data-name="border"/></g></svg>