<svg id="Layer_1" xmlns="http://www.w3.org/2000/svg" viewBox="0 0 126.8 38.7" width="127" height="40"><style>.st0{fill:#FFFFFF;} .st1{fill:#e21f2f;}</style><title>consultingpress-logo-green</title><g id="Layer_2"><g id="consulting"><path class="st0" d="M2.3 15.2C1.2 14 .6 12.4.7 10.8c-.1-1.6.5-3.2 1.6-4.4C3.5 5.3 5 4.8 6.6 4.8c1.3 0 2.6.3 3.6 1.1 1 .7 1.7 1.8 2 3H8.3c-.3-.6-.9-1-1.7-1-.6-.1-1.3.2-1.7.8-.4.6-.6 1.4-.6 2.1 0 .8.2 1.5.6 2.1.4.5 1 .8 1.6.8.4 0 .7-.1 1-.3.3-.2.5-.5.7-.8h3.9c-.3 1.2-1 2.3-2 3-1 .8-2.3 1.2-3.6 1.1-1.5.2-3-.4-4.2-1.5zM16.2 15.1c-1.2-1.1-1.8-2.7-1.8-4.4-.1-1.6.6-3.2 1.8-4.3 1.2-1.1 2.8-1.7 4.4-1.6 1.6 0 3.2.5 4.4 1.6 1.2 1.1 1.8 2.7 1.8 4.3.1 1.6-.6 3.2-1.7 4.4-1.2 1.1-2.7 1.7-4.4 1.7-1.8 0-3.4-.6-4.5-1.7zm6.1-2.1c.5-.6.8-1.4.7-2.2.1-.8-.2-1.6-.7-2.2-.5-.5-1.1-.8-1.7-.8-.7 0-1.3.3-1.7.8-.6.6-.9 1.4-.9 2.2-.1.8.2 1.6.8 2.2.5.5 1.1.8 1.8.8.6 0 1.2-.3 1.7-.8zM33.6 4.9v1.7c.7-1.2 2.1-1.9 3.5-1.8 1.2 0 2.4.4 3.3 1.3.9 1 1.3 2.3 1.3 3.7v6.8h-3.6v-6.4c0-.6-.2-1.3-.6-1.8-.9-.8-2.4-.8-3.3 0-.4.5-.6 1.1-.6 1.8v6.4H30V4.9h3.6zM44.9 8.5c0-1 .5-2 1.3-2.6 1-.7 2.3-1.1 3.6-1 1.3-.1 2.6.3 3.6 1 1 .6 1.6 1.6 1.6 2.7h-3.7c0-.3-.2-.6-.4-.8-.3-.2-.7-.2-1.1-.2-.9 0-1.4.3-1.4.9s.6.9 1.7 1.1c1.1.2 2.2.5 3.2.9 1.1.4 1.8 1.5 1.7 2.7 0 1.1-.5 2.1-1.4 2.7-1 .7-2.3 1.1-3.5 1-1.3 0-2.5-.3-3.6-1-1-.7-1.5-1.7-1.5-2.9h3.7c.1.8.6 1.1 1.5 1.1.4 0 .7-.1 1-.3.3-.2.4-.5.4-.8 0-.3-.2-.6-.7-.7-.5-.2-1.1-.4-1.7-.5-.7-.1-1.3-.3-1.9-.5-.6-.2-1.2-.5-1.7-1s-.7-1.2-.7-1.8zM66.4 4.9H70v11.7h-3.6v-1.7c-.7 1.2-2.1 2-3.5 1.9-1.2 0-2.4-.4-3.3-1.3-.9-1-1.3-2.3-1.3-3.6v-7h3.6v6.4c0 .6.2 1.3.6 1.8.9.8 2.4.8 3.3 0 .4-.5.6-1.1.6-1.8V4.9zM74.2 16.6V1.1h3.6v15.5h-3.6zM87 13.6h1.3v3h-1.9c-1.1.1-2.2-.2-3.1-.9-.8-.8-1.2-1.9-1.1-3V7.9h-1.1v-3h1.1V2.1h3.6V5h2.3v3h-2.3v4.9c.1.4.4.7 1.2.7zM95 3.6c-.8.8-2.2.8-3 0-.4-.4-.6-.9-.6-1.5s.2-1.1.6-1.5c.8-.8 2.2-.8 3 0 .4.4.6.9.6 1.5s-.2 1.1-.6 1.5zm-3.3 13V4.9h3.6v11.7h-3.6zM103.1 4.9v1.7c.7-1.2 2.1-2 3.6-1.8 1.2 0 2.4.4 3.3 1.3.9 1 1.3 2.3 1.3 3.7v6.8h-3.6v-6.4c0-.6-.2-1.3-.6-1.8-.9-.8-2.4-.8-3.3 0-.4.5-.6 1.1-.6 1.8v6.4h-3.6V4.9h3.5zM116 15.1c-1.1-1.2-1.6-2.7-1.6-4.3-.1-1.6.5-3.1 1.6-4.3 1-1.1 2.3-1.7 3.8-1.7 1.4-.1 2.6.6 3.4 1.7V4.9h3.6v11.6c.1 1.5-.4 2.9-1.3 4.1-.5.6-1.1 1-1.8 1.3-2.3.8-4.9.6-7-.6-1.1-.8-1.7-2-1.8-3.4h3.5c.3.9 1.2 1.3 2.5 1.3.6 0 1.2-.2 1.6-.7.5-.6.7-1.3.7-2.1V15c-.8 1.2-2.1 1.9-3.5 1.9-1.4-.1-2.8-.7-3.7-1.8zm6.4-2.2c.5-.6.8-1.3.8-2.1s-.2-1.6-.8-2.1c-1-1-2.5-1-3.5 0-.5.6-.8 1.3-.8 2.1-.1.8.2 1.6.8 2.1.9 1 2.5 1 3.5 0 0 .1 0 .1 0 0z"/></g><g id="PRESS"><path class="st1" d="M48.3 32.8c0 .6-.2 1.2-.6 1.6-.3.3-.6.5-1 .7-.5.2-1 .3-1.5.3H44v3.3h-2.1v-8.4h3.3c.8 0 1.6.2 2.3.8.5.4.8 1 .8 1.7zm-4.3 1h1.3c.3 0 .5-.1.7-.3.2-.2.3-.5.3-.7 0-.3-.1-.5-.3-.7-.2-.2-.5-.3-.7-.3H44v2zM63.6 35.4v3.3h-2v-8.4h3.3c.8 0 1.6.2 2.3.8.5.5.8 1.1.8 1.8 0 .5-.2 1-.4 1.4-.3.5-.9.9-1.4 1l2.1 3.4h-2.4L64 35.4h-.4zm0-3.6v2h1.3c.3 0 .5-.1.7-.3.2-.2.3-.5.3-.7 0-.3-.1-.5-.3-.7-.2-.2-.5-.3-.7-.3h-1.3zM86.7 30.2v1.6h-3v1.8h2.7v1.6h-2.7v2h3v1.6h-5.1v-8.5h5.1zM103.3 31.7c-.2 0-.4.1-.6.2-.2.1-.3.4-.3.6 0 .2.1.5.2.6.2.2.4.3.6.4.2.1.5.2.8.2l.9.3c.3.1.6.2.8.4.3.2.5.4.6.7.2.3.2.7.2 1 0 .7-.3 1.4-.9 1.8-.6.5-1.5.8-2.3.8-.8 0-1.6-.2-2.3-.7-.6-.5-.9-1.2-.9-1.9h2.2c0 .6.4 1 1 1 .3 0 .5-.1.7-.2.2-.2.3-.4.3-.6 0-.2-.1-.4-.2-.6-.2-.2-.4-.3-.6-.4-.2-.1-.5-.2-.8-.3l-.9-.3c-.3-.1-.6-.2-.8-.4-.3-.2-.5-.4-.6-.7-.2-.3-.2-.7-.2-1 0-.7.3-1.4.9-1.9.6-.5 1.4-.7 2.2-.7.8 0 1.6.2 2.2.6.6.5.9 1.2.9 2h-2.2c0-.3-.1-.5-.3-.7-.2-.1-.4-.2-.6-.2zM123.1 31.7c-.2 0-.4.1-.6.2-.2.1-.3.4-.3.6 0 .2.1.5.2.6.2.2.4.3.6.4.2.1.5.2.8.2l.9.3c.3.1.6.2.8.4.3.2.5.4.6.7.2.3.2.7.2 1 0 .7-.3 1.4-.9 1.8-.6.5-1.5.8-2.3.8-.8 0-1.6-.2-2.3-.7-.6-.5-.9-1.2-.9-1.9h2.2c0 .6.4 1 1 1 .3 0 .5-.1.7-.2.2-.2.3-.4.3-.6 0-.2-.1-.4-.2-.6-.2-.2-.4-.3-.6-.4-.2-.1-.5-.2-.8-.3l-.9-.3c-.3-.1-.6-.2-.8-.4-.3-.2-.5-.4-.6-.7-.2-.3-.2-.7-.2-1 0-.7.3-1.4.9-1.9.6-.5 1.4-.7 2.2-.7.8 0 1.6.2 2.2.6.6.5.9 1.2.9 2H124c0-.3-.1-.5-.3-.7-.2-.1-.4-.2-.6-.2z"/></g><g id="border"><path class="st1" d="M0 33.7h29v1H0z" id="border-2"/></g></g></svg>