<svg id="Layer_1" xmlns="http://www.w3.org/2000/svg" viewBox="0 0 13 13"><style>.st0{enable-background:new}.st1{fill:#acb4b5}</style><g class="st0"><path class="st1" d="M12.1 11.9c0 .3-.1.5-.3.7-.2.2-.4.3-.7.3-.3 0-.5-.1-.7-.3L8 10.1c-.9.6-1.8.9-2.9.9-.7 0-1.4-.1-2-.4S1.9 10 1.5 9.5.7 8.5.4 7.9c-.3-.7-.4-1.3-.4-2s.1-1.4.4-2c.3-.6.6-1.2 1.1-1.6s1-.8 1.6-1.1 1.3-.4 2-.4 1.4.1 2 .4c.6.3 1.2.6 1.6 1.1s.8 1 1.1 1.6c.3.6.4 1.3.4 2 0 1.1-.3 2-.9 2.9l2.5 2.5c.2.2.3.4.3.6zM7.4 8.2c.6-.6 1-1.4 1-2.3 0-.9-.3-1.7-1-2.3-.6-.6-1.4-1-2.3-1-.9 0-1.7.3-2.3 1s-1 1.4-1 2.3c0 .9.3 1.7 1 2.3.6.6 1.4 1 2.3 1 .9-.1 1.7-.4 2.3-1z"/></g></svg>