<svg xmlns="http://www.w3.org/2000/svg" width="20" height="20" viewBox="0 0 20 20"><defs><style>.cls-1{fill:#fff;fill-rule:evenodd}</style></defs><path class="cls-1" d="M13.635 4.2c-.551.691-1.727 2.042-1.253 3.029a3.654 3.654 0 0 0-4.342-.313 5.6 5.6 0 0 1-1.755-3.847C6.321 1.011 8.242.138 10.075.007c.925-.066 5.309.369 5.309 1.854 0 .747-1.322 1.804-1.749 2.339zM6.346 10a3.638 3.638 0 0 0 .57 1.96 5.594 5.594 0 0 1-3.846 1.755C1.011 13.678.138 11.758.008 9.925c-.066-.925.368-5.31 1.853-5.31.748 0 1.8 1.322 2.34 1.75.691.551 2.042 1.727 3.028 1.253A3.64 3.64 0 0 0 6.346 10zm7.369 6.93c-.036 2.059-1.957 2.931-3.79 3.062-.923.066-5.309-.369-5.309-1.854 0-.748 1.322-1.8 1.749-2.34.552-.691 1.727-2.042 1.253-3.028a3.656 3.656 0 0 0 4.342.313 5.6 5.6 0 0 1 1.755 3.847zm4.424-1.546c-.748 0-1.8-1.322-2.34-1.749-.691-.552-2.042-1.727-3.028-1.253a3.655 3.655 0 0 0 .313-4.342 5.594 5.594 0 0 1 3.846-1.755c2.059.036 2.932 1.957 3.062 3.79.066.925-.368 5.309-1.853 5.309zM12.315 10A2.315 2.315 0 1 1 10 7.685 2.315 2.315 0 0 1 12.315 10zm0 0A2.315 2.315 0 1 1 10 7.685 2.315 2.315 0 0 1 12.315 10z"/></svg>