<svg xmlns="http://www.w3.org/2000/svg" width="20" height="20" viewBox="0 0 20 20"><defs><style>.cls-1 { fill: #fff; fill-rule: evenodd; }</style></defs><path class="cls-1" d="M13.635 4.2c-.55.69-1.727 2.042-1.253 3.03a3.654 3.654 0 0 0-4.342-.314A5.6 5.6 0 0 1 6.285 3.07C6.32 1.01 8.242.137 10.075.006c.925-.066 5.31.37 5.31 1.854 0 .748-1.323 1.805-1.75 2.34zM6.345 10a3.638 3.638 0 0 0 .57 1.96 5.594 5.594 0 0 1-3.845 1.755C1.01 13.678.138 11.758.008 9.925-.058 9 .376 4.615 1.86 4.615c.75 0 1.8 1.322 2.34 1.75.692.55 2.043 1.727 3.03 1.253A3.64 3.64 0 0 0 6.345 10zm7.37 6.93c-.036 2.06-1.957 2.93-3.79 3.062-.923.066-5.31-.37-5.31-1.854 0-.748 1.323-1.8 1.75-2.34.552-.69 1.727-2.042 1.253-3.028a3.656 3.656 0 0 0 4.342.313 5.6 5.6 0 0 1 1.755 3.847zm4.424-1.546c-.75 0-1.8-1.322-2.34-1.75-.692-.55-2.043-1.726-3.03-1.252a3.655 3.655 0 0 0 .314-4.342 5.594 5.594 0 0 1 3.846-1.755c2.06.036 2.932 1.957 3.062 3.79.066.925-.368 5.31-1.853 5.31zM12.314 10A2.315 2.315 0 1 1 10 7.685 2.315 2.315 0 0 1 12.315 10zm0 0A2.315 2.315 0 1 1 10 7.685 2.315 2.315 0 0 1 12.315 10z"/></svg>