<svg xmlns="http://www.w3.org/2000/svg" width="20" height="18" viewBox="0 0 20 18"><defs><style>.cls-1{fill:#fff;fill-rule:evenodd}</style></defs><path class="cls-1" d="M15.757 8.506v2.225-2.224zm.471-6.891v5.493a2.252 2.252 0 0 0-.228.111 2.153 2.153 0 0 0-1.036-.277V1.616a.324.324 0 0 0-.316-.323H1.578a.324.324 0 0 0-.316.323v7.965a.324.324 0 0 0 .316.323h9.287v.516a2.15 2.15 0 0 0-1.955.252l-.088.063a2.248 2.248 0 0 0-.454.463 2.3 2.3 0 0 0 0 2.7l.3.415H2.424v-1.436h3.664V11.2h-4.51A1.6 1.6 0 0 1 0 9.581V1.616A1.6 1.6 0 0 1 1.578 0H14.65a1.6 1.6 0 0 1 1.578 1.616zM19.059 8.9a.929.929 0 0 0-.7.319v1.936h-.481V8.51a1.042 1.042 0 0 0-1.637 0v2.643h-.482V8.507l-.018-.022-.041-.044a1.345 1.345 0 0 0-.077-.074l-.023-.016-.008-.006-.046-.035-.007-.01-.027-.018-.03-.019-.02-.012-.052-.026-.026-.012a1.039 1.039 0 0 0-.105-.043l-.026-.009-.022-.006a.792.792 0 0 0-.091-.021l-.026-.005h-.173a1.046 1.046 0 0 0-.817.4v2.648h-.48V4.8a1.042 1.042 0 0 0-1.634 0v8.519l-.318-.438-.708-.981a1.041 1.041 0 0 0-1.48-.225 1 1 0 0 0-.1.087l-.03.03-.028.031-.021.024-.015.023-.016.022-.016.022-.017.025-.011.017a1.061 1.061 0 0 0-.061.108l-.01.021c-.011.023-.021.047-.03.071l-.021.059-.008.026-.007.027c0 .018-.009.036-.013.054s0 .013 0 .02-.006.033-.008.05v.124a1.068 1.068 0 0 0 0 .116v.041c0 .014 0 .027.005.041s0 .028.007.041-.004.028-.004.045l.01.04c0 .013.007.027.012.04l.014.042.013.034.009.022.014.022.005.012.016.033.02.039.042.069.011.016.019.031.807 1.114L12.761 18h5.444L20 16.159V9.866a.952.952 0 0 0-.941-.966z"/></svg>