<svg xmlns="http://www.w3.org/2000/svg" width="12" height="20" viewBox="0 0 12 20"><defs><style>.cls-1{fill:#fff;fill-rule:evenodd}</style></defs><path class="cls-1" d="M11.864 19.918c.087.051.136.082.136.082H6.849a10.824 10.824 0 0 0-1.7 0H0s.047-.031.135-.081.217-.121.381-.2a9.78 9.78 0 0 1 1.359-.529 12.698 12.698 0 0 1 1.921-.433c.351-.052.715-.092 1.084-.119l.175-.012c-.087-1.372-.173-3.02-.26-4.447H7.2c-.087 1.426-.173 3.073-.26 4.445l.175.011a14.318 14.318 0 0 1 2.097.307c.322.074.627.156.908.244a9.738 9.738 0 0 1 1.359.531c.168.083.297.15.385.201zM2.365 3.641L0 6.06V0a9.66 9.66 0 0 0 .118.28l.043.095.05.1C.281.627.371.8.48 1s.236.411.381.64a16.603 16.603 0 0 0 1.504 2.001zM5.918 0l-2.3 2.352a24.908 24.908 0 0 0-.5-.421q-.2-.16-.393-.308A14.974 14.974 0 0 0 1 .481a8.19 8.19 0 0 0-.517-.27l-.1-.05L.28.118A5.898 5.898 0 0 0 .13.053L0 0h5.918zM12 0v7.017a6.006 6.006 0 0 1-4.674 5.859h-2.65a6.011 6.011 0 0 1-4.5-4.4l3.437-3.52q.229.221.463.433c.262.236.524.457.781.667a16.1 16.1 0 0 0 1.484 1.072c.228.145.444.272.639.38s.37.2.518.269l.1.05.102.043c.058.027.109.048.15.065.083.034.129.05.129.05s-.016-.046-.05-.129c-.021-.04-.043-.091-.069-.15l-.043-.093-.05-.1c-.067-.154-.16-.328-.267-.524s-.235-.411-.38-.64a16.027 16.027 0 0 0-1.07-1.486c-.211-.263-.433-.52-.666-.777q-.218-.241-.447-.479L8.457 0H12zM6.849 20h-1.7a10.824 10.824 0 0 1 1.7 0z"/></svg>