<svg xmlns="http://www.w3.org/2000/svg" width="20" height="14" viewBox="0 0 20 14"><defs><style>.cls-1 { fill: #fff; fill-rule: evenodd; }</style></defs><path class="cls-1" d="M6.793 4.975a.82.82 0 0 0-.828-.81H2.772a.82.82 0 0 0-.828.81V6.6h4.85V4.975zM15.63 7.61a3.76 3.76 0 0 1-5.475 0H0v2.953S3.675 10.95 3.692 14h12.553s3.34-2.86 3.755-6.39h-4.37zm.2 5.38H4.608a4.1 4.1 0 0 0-1.828-2.482c.766-.4.968-1.474 2.064-1.474 1.343 0 1.343 1.618 2.685 1.618s1.34-1.618 2.684-1.618 1.342 1.618 2.685 1.618 1.34-1.618 2.684-1.618c1.164 0 1.32 1.216 2.215 1.54a13.377 13.377 0 0 1-1.968 2.416zm-2.94-5.208a2.642 2.642 0 0 0 2.674-2.612c0-1.442-2.672-5.17-2.672-5.17S10.22 3.728 10.22 5.17a2.642 2.642 0 0 0 2.672 2.612zm-1.11-3.62a.94.94 0 0 1 .527 1.05.94.94 0 0 1-.526 1.05.94.94 0 0 1-.525-1.05.94.94 0 0 1 .526-1.05z"/></svg>