<svg xmlns="http://www.w3.org/2000/svg" width="12" height="20" viewBox="0 0 12 20"><defs><style>.cls-1 { fill: #fff; fill-rule: evenodd; }</style></defs><path class="cls-1" d="M11.864 19.918c.087.05.136.082.136.082H6.85a10.824 10.824 0 0 0-1.7 0H0s.047-.03.135-.08.217-.122.38-.2a9.78 9.78 0 0 1 1.36-.53c.28-.088.586-.17.908-.244s.662-.137 1.013-.19.715-.09 1.084-.118l.175-.012c-.087-1.372-.173-3.02-.26-4.447H7.2c-.087 1.425-.173 3.072-.26 4.444l.175.01c.37.027.732.067 1.084.12s.69.114 1.012.188.627.156.908.244a9.738 9.738 0 0 1 1.36.53c.167.084.296.15.384.202zM2.364 3.64L0 6.06V0l.053.13c.017.042.04.092.065.15L.16.375l.05.1C.28.627.37.8.48 1s.236.41.38.64c.212.33.46.69.74 1.06.105.14.215.28.33.42.14.175.284.35.435.52zM5.92 0l-2.3 2.352c-.167-.145-.336-.286-.5-.42q-.2-.16-.393-.31c-.38-.287-.75-.543-1.09-.76C1.405.717 1.19.59 1 .482S.63.28.483.21l-.1-.05L.28.117.13.053 0 0h5.918zM12 0v7.017a6.006 6.006 0 0 1-4.674 5.86h-2.65a6.01 6.01 0 0 1-4.5-4.4l3.437-3.52q.23.22.463.432c.262.235.524.456.78.666a16.1 16.1 0 0 0 1.485 1.072c.23.145.445.272.64.38s.37.2.518.27l.1.05.102.042c.058.027.11.048.15.065.083.034.13.05.13.05s-.017-.046-.05-.13c-.022-.04-.044-.09-.07-.15l-.043-.092-.05-.1c-.067-.154-.16-.328-.267-.524s-.235-.412-.38-.64a16.027 16.027 0 0 0-1.07-1.487c-.21-.263-.433-.52-.666-.777q-.218-.24-.447-.48L8.457 0H12zM6.85 20h-1.7a10.824 10.824 0 0 1 1.7 0z"/></svg>