<svg xmlns="http://www.w3.org/2000/svg" width="18" height="19" viewBox="0 0 18 19"><defs><style>.cls-1{fill:#fff;fill-rule:evenodd}</style></defs><path class="cls-1" d="M9.52 19l1.246-.267-1.178-9H3.78c-.013.338.009 1.238 0 1.522a.911.911 0 0 1-.495.837 98.175 98.175 0 0 0-2.347 1.164l.594 1.231a87.9 87.9 0 0 1 2.308-1.145 2.246 2.246 0 0 0 1.26-2.029l3.414.02zm8.044-11.3h-.64a9.054 9.054 0 0 1-1.731-.7l-.279-2.48A7.228 7.228 0 0 0 7.892 0C3.859 0 .59 2.786.59 6.226V7.7H.435a.451.451 0 0 0 0 .9h17.13a.451.451 0 0 0-.001-.9zM6.968 2.82A6.386 6.386 0 0 0 2.4 4.975c-.386.5-.478.209-.251-.319A6.021 6.021 0 0 1 6.9 1.338a.65.65 0 0 1 .87.7.724.724 0 0 1-.802.782z"/></svg>