<svg xmlns="http://www.w3.org/2000/svg" width="20" height="19" viewBox="0 0 20 19"><defs><style>.cls-1{fill:#fff;fill-rule:evenodd}</style></defs><path class="cls-1" d="M6.263 7.942v-.819L0 10.548v1.864l6.6-1.18zm7.474-.819v.819l-.337 3.29 6.6 1.18v-1.864zm-1.088.762V5.657C12.649 3.9 11.463 0 10 0S7.35 3.9 7.35 5.657v2.228l.756 7.3-2.99 2.659V19l3.593-1.339h.573L9.617 19h.767l.335-1.343h.571L14.884 19v-1.156l-2.991-2.661zM8.817 3.508a2.907 2.907 0 0 1 2.366 0 11.04 11.04 0 0 1 .292 1.261 4.577 4.577 0 0 0-2.95 0 11.029 11.029 0 0 1 .292-1.261z"/></svg>