<svg xmlns="http://www.w3.org/2000/svg" width="20" height="25" viewBox="0 0 20 25"><defs><style>.cls-1{fill:#fff;fill-rule:evenodd}</style></defs><path class="cls-1" d="M19.891 10.345h-1.182a2.924 2.924 0 0 0-.179-.408 1.713 1.713 0 0 0-.349-.46l.064-.248c.025-.1.048-.205.069-.307a6.666 6.666 0 0 0-1.542-6.216A10.043 10.043 0 0 0 9.482 0a10.044 10.044 0 0 0-7.289 2.7A6.666 6.666 0 0 0 .651 8.921c.021.1.044.2.069.307.02.084.041.167.064.249a1.7 1.7 0 0 0-.349.461A4.824 4.824 0 0 0 .019 12.5a5.645 5.645 0 0 0 .429 1.812 1.614 1.614 0 0 0 1.339 1.209.761.761 0 0 0 .263-.069 8.711 8.711 0 0 0 5.364 5.87 6.671 6.671 0 0 0 2.069.329c3.4 0 6.3-2.577 7.433-6.2a.756.756 0 0 0 .263.069 1.614 1.614 0 0 0 1.339-1.21 11.5 11.5 0 0 1-2.431 5.366 9.288 9.288 0 0 1-2.93 2.374 8.21 8.21 0 0 1-1.791.667v-.453H7.413V25h3.952v-.959a9.448 9.448 0 0 0 2.375-.841 10.573 10.573 0 0 0 3.336-2.7A13.157 13.157 0 0 0 20 12.085a14.161 14.161 0 0 0-.109-1.74zm-3.559 3.185q-.066.484-.177.948c-.841 3.565-3.514 6.178-6.673 6.178a5.729 5.729 0 0 1-2.069-.388 8.014 8.014 0 0 1-4.6-5.791q-.113-.463-.181-.947a10.541 10.541 0 0 1-.1-1.445 5.879 5.879 0 0 1 .159-1.516c.67-2.46 3.381-.224 6.7-.224 3.208 0 5.982-2.094 6.8 0 .029.074.055.153.079.237a5.643 5.643 0 0 1 .165 1.5 10.541 10.541 0 0 1-.103 1.448zm-4.325 4.463c0 .724-1.171 1.311-2.614 1.311a4.064 4.064 0 0 1-1.98-.455 1.067 1.067 0 0 1-.635-.856.36.36 0 0 1 .086-.26.709.709 0 0 1 .549-.133c.479.017 1.189.17 1.98.17 1.291 0 2.363-.4 2.576.028a.432.432 0 0 1 .039.195zm-3.56-5.166a1.176 1.176 0 0 1-1.034.8 5.242 5.242 0 0 1-1.392.176c-1.34 0-2.426-.437-2.426-.976s1.087-.977 2.426-.977a5.226 5.226 0 0 1 1.392.176 1.175 1.175 0 0 1 1.034.802zm6.922 0c0 .539-1.087.976-2.427.976s-2.426-.437-2.426-.976 1.086-.977 2.426-.977 2.428.438 2.428.978z"/></svg>