<svg xmlns="http://www.w3.org/2000/svg" width="20" height="25" viewBox="0 0 20 25"><defs><style>.cls-1 { fill: #fff; fill-rule: evenodd; }</style></defs><path class="cls-1" d="M19.89 10.345h-1.18a2.924 2.924 0 0 0-.18-.408 1.713 1.713 0 0 0-.35-.46c.023-.082.044-.165.065-.248.025-.1.048-.206.07-.308a6.666 6.666 0 0 0-1.543-6.216A10.043 10.043 0 0 0 9.482 0a10.044 10.044 0 0 0-7.29 2.7 6.666 6.666 0 0 0-1.54 6.22c.02.1.043.2.068.308.02.084.04.167.064.25a1.7 1.7 0 0 0-.35.46A4.824 4.824 0 0 0 .02 12.5a5.645 5.645 0 0 0 .428 1.812 1.614 1.614 0 0 0 1.34 1.21.76.76 0 0 0 .262-.07 8.71 8.71 0 0 0 5.364 5.87 6.67 6.67 0 0 0 2.07.33c3.4 0 6.3-2.578 7.432-6.2a.756.756 0 0 0 .263.068 1.614 1.614 0 0 0 1.338-1.21 11.5 11.5 0 0 1-2.43 5.366 9.288 9.288 0 0 1-2.93 2.374 8.21 8.21 0 0 1-1.792.667v-.453H7.413V25h3.952v-.96a9.448 9.448 0 0 0 2.375-.84 10.573 10.573 0 0 0 3.336-2.7A13.157 13.157 0 0 0 20 12.085a14.16 14.16 0 0 0-.11-1.74zm-3.558 3.185q-.066.484-.177.948c-.84 3.565-3.514 6.178-6.673 6.178a5.73 5.73 0 0 1-2.07-.388 8.014 8.014 0 0 1-4.6-5.79q-.112-.464-.18-.948a10.54 10.54 0 0 1-.1-1.445 5.88 5.88 0 0 1 .16-1.516c.67-2.46 3.38-.225 6.7-.225 3.207 0 5.98-2.094 6.8 0 .028.074.054.153.078.237a5.643 5.643 0 0 1 .165 1.5 10.54 10.54 0 0 1-.103 1.448zm-4.325 4.463c0 .724-1.17 1.31-2.614 1.31a4.064 4.064 0 0 1-1.98-.454 1.067 1.067 0 0 1-.635-.857.36.36 0 0 1 .086-.26.71.71 0 0 1 .55-.133c.478.017 1.188.17 1.98.17 1.29 0 2.362-.4 2.575.028a.432.432 0 0 1 .038.195zm-3.56-5.166a1.176 1.176 0 0 1-1.034.8 5.242 5.242 0 0 1-1.392.176c-1.34 0-2.425-.437-2.425-.976s1.087-.977 2.426-.977a5.226 5.226 0 0 1 1.393.176 1.175 1.175 0 0 1 1.034.802zm6.922 0c0 .54-1.088.976-2.428.976s-2.426-.437-2.426-.976 1.086-.977 2.426-.977 2.428.438 2.428.978z"/></svg>