<svg xmlns="http://www.w3.org/2000/svg" width="20" height="18" viewBox="0 0 20 18"><defs><style>.cls-1 { fill: #fff; fill-rule: evenodd; }</style></defs><path class="cls-1" d="M15.757 8.506v2.225-2.223zm.47-6.89v5.492a2.252 2.252 0 0 0-.227.11 2.153 2.153 0 0 0-1.036-.276V1.616a.324.324 0 0 0-.316-.323H1.578a.324.324 0 0 0-.316.323V9.58a.324.324 0 0 0 .316.324h9.287v.516a2.15 2.15 0 0 0-1.955.252q-.045.03-.088.063a2.248 2.248 0 0 0-.454.463 2.3 2.3 0 0 0 0 2.7l.3.415H2.424v-1.436h3.664V11.2h-4.51A1.6 1.6 0 0 1 0 9.58V1.617A1.6 1.6 0 0 1 1.578 0H14.65a1.6 1.6 0 0 1 1.578 1.616zM19.06 8.9a.93.93 0 0 0-.7.32v1.935h-.482V8.51a1.042 1.042 0 0 0-1.637 0v2.643h-.48V8.507l-.02-.022-.04-.044c-.025-.025-.05-.05-.077-.073L15.6 8.35l-.008-.005-.046-.035-.007-.01-.028-.018-.03-.02-.02-.01-.052-.027-.026-.012a1.04 1.04 0 0 0-.105-.043l-.027-.01-.022-.005c-.03-.01-.06-.016-.09-.02l-.026-.006h-.175a1.046 1.046 0 0 0-.816.4v2.647h-.48V4.8a1.042 1.042 0 0 0-1.634 0v8.52l-.318-.44-.708-.98a1.04 1.04 0 0 0-1.48-.225 1 1 0 0 0-.1.087l-.03.03-.028.03-.02.025-.016.023-.016.022-.016.022-.017.025-.01.016a1.06 1.06 0 0 0-.06.108l-.01.02c-.012.024-.022.048-.03.072l-.022.06-.008.025-.007.028c0 .018-.01.036-.013.054s0 .013 0 .02-.006.033-.008.05v.123a1.068 1.068 0 0 0 0 .116v.04s0 .028.005.042 0 .028.007.04-.004.03-.004.046l.01.04c0 .013.007.027.012.04l.014.042.013.034.008.022.014.022.005.012.016.033.02.04.042.068.01.016.02.03.807 1.114L12.762 18h5.443L20 16.16V9.865a.952.952 0 0 0-.94-.966z"/></svg>