<svg xmlns="http://www.w3.org/2000/svg" width="20" height="14" viewBox="0 0 20 14"><defs><style>.cls-1{fill:#fff;fill-rule:evenodd}</style></defs><path class="cls-1" d="M6.793 4.975a.819.819 0 0 0-.828-.809H2.772a.819.819 0 0 0-.828.809V6.6h4.849V4.975zm8.837 2.636a3.759 3.759 0 0 1-5.475 0H0v2.952S3.675 10.95 3.692 14h12.553S19.584 11.141 20 7.611h-4.37zm.2 5.379H4.608a4.1 4.1 0 0 0-1.828-2.482c.766-.4.968-1.474 2.064-1.474 1.343 0 1.343 1.618 2.685 1.618s1.342-1.618 2.685-1.618 1.342 1.618 2.685 1.618 1.342-1.618 2.685-1.618c1.164 0 1.319 1.216 2.215 1.54a13.377 13.377 0 0 1-1.967 2.416zm-2.94-5.208a2.642 2.642 0 0 0 2.674-2.612c0-1.442-2.672-5.17-2.672-5.17S10.22 3.728 10.22 5.17a2.642 2.642 0 0 0 2.672 2.612zm-1.109-3.621a.94.94 0 0 1 .526 1.051.94.94 0 0 1-.526 1.051.94.94 0 0 1-.526-1.051.94.94 0 0 1 .526-1.051z"/></svg>