<svg id="Layer_1" xmlns="http://www.w3.org/2000/svg" viewBox="0 0 26 21"><style>.st0{enable-background:new ;} .st1{fill:#ADB4B5;}</style><path class="st0 st1" d="M26 2.5c-.7 1.1-1.6 2-2.6 2.7v.7c0 1.4-.2 2.8-.6 4.3s-1 2.8-1.9 4.1-1.8 2.5-3 3.5c-1.1 1-2.5 1.8-4.1 2.4-1.6.6-3.3.9-5.2.9-2.9 0-5.5-.8-8-2.4.4 0 .8.1 1.3.1 2.4 0 4.5-.8 6.4-2.3-1.1 0-2.1-.4-3-1.1-.9-.7-1.5-1.6-1.8-2.6.4.1.7.1 1 .1.5 0 .9-.1 1.4-.2-1.2-.3-2.2-.9-3-1.8-.8-1-1.2-2.1-1.2-3.4v-.1c.8.4 1.5.6 2.4.7-.7-.5-1.3-1.2-1.7-1.9-.4-.8-.6-1.6-.6-2.6S2 1.7 2.5.9c1.3 1.6 2.9 2.9 4.7 3.9 1.9 1 3.8 1.5 6 1.6-.1-.3-.2-.7-.2-1.1 0-1.5.5-2.7 1.5-3.7S16.7 0 18.2 0 21 .6 22 1.7c1.2-.2 2.3-.7 3.3-1.3-.4 1.3-1.2 2.2-2.3 2.9 1-.1 2-.4 3-.8z"/></svg>