<svg id="Layer_1" data-name="Layer 1" xmlns="http://www.w3.org/2000/svg" viewBox="0 0 426.29 91.01"><defs><style>.cls-1{fill:url(#linear-gradient);}.cls-2{font-size:58.42px;fill:#fff;font-family:EuphemiaUCAS, Euphemia UCAS;letter-spacing:0.07em;}</style><linearGradient id="linear-gradient" x1="47.58" x2="47.58" y2="91.01" gradientUnits="userSpaceOnUse"><stop offset="0" stop-color="#009c8b"/><stop offset=".46" stop-color="#3f2d87"/><stop offset="1" stop-color="#aa2b87"/></linearGradient></defs><title>Artboard 4white</title><path class="cls-1" d="M4.53 40.28V88c0 1.65-1 3-2.27 3S0 89.67 0 88V40.28c0-1.65 1-3 2.27-3s2.26 1.36 2.26 3zm9.06-25.36c-1.25 0-2.27 1.34-2.27 3v47.73c0 1.65 1 3 2.27 3s2.27-1.34 2.27-3V17.9c0-1.64-1.02-2.98-2.27-2.98zM24.92 0c-1.25 0-2.27 1.34-2.27 3v47.73c0 1.65 1 3 2.27 3s2.27-1.34 2.27-3V3c0-1.66-1.02-3-2.27-3zm11.33 14.92c-1.25 0-2.27 1.34-2.27 3v47.73c0 1.65 1 3 2.27 3s2.27-1.34 2.27-3V17.9c-.01-1.64-1.02-2.98-2.27-2.98zm11.33-7.46c-1.25 0-2.27 1.34-2.27 3v47.73c0 1.65 1 3 2.27 3s2.27-1.34 2.27-3V10.44c-.01-1.64-1.02-2.98-2.27-2.98zM58.9 28.35c-1.25 0-2.27 1.34-2.27 3v47.72c0 1.65 1 3 2.27 3s2.27-1.34 2.27-3V31.33c0-1.65-1.02-2.98-2.27-2.98zm11.33-7.46c-1.25 0-2.27 1.34-2.27 3v47.72c0 1.65 1 3 2.27 3s2.27-1.34 2.27-3V23.87c0-1.65-1.02-2.98-2.27-2.98zm11.33-7.46c-1.25 0-2.27 1.34-2.27 3v47.72c0 1.65 1 3 2.27 3s2.27-1.34 2.27-3V16.41c-.01-1.65-1.02-2.98-2.27-2.98zm11.32 14.92c-1.25 0-2.27 1.34-2.27 3v47.72c0 1.65 1 3 2.27 3s2.27-1.34 2.27-3V31.33c0-1.65-1.01-2.98-2.27-2.98z"/><text class="cls-2" transform="translate(125.01 66.95)">borealisIT</text></svg>