<svg id="Layer_1" data-name="Layer 1" xmlns="http://www.w3.org/2000/svg" viewBox="0 0 373.5 207.23"><defs><style>.cls-1{fill:url(#linear-gradient);}.cls-2{font-size:72.42px;font-family:EuphemiaUCAS, Euphemia UCAS;letter-spacing:0.07em;}</style><linearGradient id="linear-gradient" x1="186.75" x2="186.75" y2="112.83" gradientUnits="userSpaceOnUse"><stop offset="0" stop-color="#009c8b"/><stop offset=".46" stop-color="#3f2d87"/><stop offset="1" stop-color="#aa2b87"/></linearGradient></defs><title>Artboard 3</title><path class="cls-1" d="M133.39 49.94v59.19c0 2-1.26 3.7-2.81 3.7s-2.81-1.66-2.81-3.7V49.94c0-2 1.26-3.7 2.81-3.7s2.81 1.66 2.81 3.7zm11.23-31.44c-1.55 0-2.81 1.66-2.81 3.7v59.18c0 2 1.26 3.7 2.81 3.7s2.81-1.66 2.81-3.7V22.2c0-2.05-1.25-3.7-2.81-3.7zm14-18.5c-1.55 0-2.81 1.66-2.81 3.7v59.19c0 2 1.26 3.7 2.81 3.7s2.81-1.66 2.81-3.7V3.7c.05-2.04-1.21-3.7-2.76-3.7zm14 18.5c-1.55 0-2.81 1.66-2.81 3.7v59.18c0 2 1.26 3.7 2.81 3.7s2.81-1.66 2.81-3.7V22.2c.09-2.05-1.17-3.7-2.72-3.7zm14-9.25c-1.55 0-2.81 1.66-2.81 3.7v59.19c0 2 1.26 3.7 2.81 3.7s2.81-1.66 2.81-3.7V12.95c.13-2.05-1.13-3.7-2.68-3.7zm14 25.89c-1.55 0-2.81 1.66-2.81 3.7V98c0 2 1.26 3.7 2.81 3.7s2.81-1.66 2.81-3.7V38.84c.17-2.04-1.08-3.7-2.63-3.7zm14-9.25c-1.55 0-2.81 1.66-2.81 3.7v59.19c0 2 1.26 3.7 2.81 3.7s2.81-1.66 2.81-3.7V29.59c.22-2.04-1.04-3.7-2.59-3.7zm14-9.25c-1.55 0-2.81 1.66-2.81 3.7v59.19c0 2 1.26 3.7 2.81 3.7s2.81-1.66 2.81-3.7V20.35c.26-2.05-1-3.7-2.55-3.7zm14 18.5c-1.55 0-2.81 1.66-2.81 3.7V98c0 2 1.26 3.7 2.81 3.7s2.81-1.66 2.81-3.7V38.84c.3-2.04-.95-3.7-2.51-3.7z"/><text class="cls-2" transform="translate(0 182.55)">borealisIT</text></svg>