<svg id="Layer_1" data-name="Layer 1" xmlns="http://www.w3.org/2000/svg" xmlns:xlink="http://www.w3.org/1999/xlink" viewBox="0 0 426.29 91.01"><defs><style>.cls-1{fill:url(#linear-gradient);}.cls-2{font-size:58.42px;font-family:EuphemiaUCAS, Euphemia UCAS;letter-spacing:0.07em;}</style><linearGradient id="linear-gradient" x1="47.58" x2="47.58" y2="91.01" gradientUnits="userSpaceOnUse"><stop offset="0" stop-color="#009c8b"/><stop offset="0.46" stop-color="#3f2d87"/><stop offset="1" stop-color="#aa2b87"/></linearGradient></defs><title>Artboard 4</title><path class="cls-1" d="M4.53,40.28V88c0,1.65-1,3-2.27,3S0,89.67,0,88V40.28c0-1.65,1-3,2.27-3S4.53,38.64,4.53,40.28Zm9.06-25.36c-1.25,0-2.27,1.34-2.27,3V65.65c0,1.65,1,3,2.27,3s2.27-1.34,2.27-3V17.9C15.86,16.26,14.84,14.92,13.59,14.92ZM24.92,0c-1.25,0-2.27,1.34-2.27,3V50.73c0,1.65,1,3,2.27,3s2.27-1.34,2.27-3V3C27.19,1.34,26.17,0,24.92,0ZM36.25,14.92c-1.25,0-2.27,1.34-2.27,3V65.65c0,1.65,1,3,2.27,3s2.27-1.34,2.27-3V17.9C38.51,16.26,37.5,14.92,36.25,14.92ZM47.58,7.46c-1.25,0-2.27,1.34-2.27,3V58.19c0,1.65,1,3,2.27,3s2.27-1.34,2.27-3V10.44C49.84,8.8,48.83,7.46,47.58,7.46ZM58.9,28.35c-1.25,0-2.27,1.34-2.27,3V79.07c0,1.65,1,3,2.27,3s2.27-1.34,2.27-3V31.33C61.17,29.68,60.15,28.35,58.9,28.35Zm11.33-7.46c-1.25,0-2.27,1.34-2.27,3V71.61c0,1.65,1,3,2.27,3s2.27-1.34,2.27-3V23.87C72.5,22.22,71.48,20.89,70.23,20.89Zm11.33-7.46c-1.25,0-2.27,1.34-2.27,3V64.15c0,1.65,1,3,2.27,3s2.27-1.34,2.27-3V16.41C83.82,14.76,82.81,13.43,81.56,13.43ZM92.88,28.35c-1.25,0-2.27,1.34-2.27,3V79.07c0,1.65,1,3,2.27,3s2.27-1.34,2.27-3V31.33C95.15,29.68,94.14,28.35,92.88,28.35Z"/><text class="cls-2" transform="translate(125.01 66.95)">borealisIT</text></svg>