<svg id="Layer_1" data-name="Layer 1" xmlns="http://www.w3.org/2000/svg" xmlns:xlink="http://www.w3.org/1999/xlink" viewBox="0 0 373.5 207.23"><defs><style>.cls-1{fill:url(#linear-gradient);}.cls-2{font-size:72.42px;font-family:EuphemiaUCAS, Euphemia UCAS;letter-spacing:0.07em;}</style><linearGradient id="linear-gradient" x1="186.75" x2="186.75" y2="112.83" gradientUnits="userSpaceOnUse"><stop offset="0" stop-color="#009c8b"/><stop offset="0.46" stop-color="#3f2d87"/><stop offset="1" stop-color="#aa2b87"/></linearGradient></defs><title>Artboard 3</title><path class="cls-1" d="M133.39,49.94v59.19c0,2-1.26,3.7-2.81,3.7s-2.81-1.66-2.81-3.7V49.94c0-2,1.26-3.7,2.81-3.7S133.39,47.9,133.39,49.94ZM144.62,18.5c-1.55,0-2.81,1.66-2.81,3.7V81.38c0,2,1.26,3.7,2.81,3.7s2.81-1.66,2.81-3.7V22.2C147.43,20.15,146.18,18.5,144.62,18.5Zm14-18.5c-1.55,0-2.81,1.66-2.81,3.7V62.89c0,2,1.26,3.7,2.81,3.7s2.81-1.66,2.81-3.7V3.7C161.48,1.66,160.22,0,158.67,0Zm14,18.5c-1.55,0-2.81,1.66-2.81,3.7V81.38c0,2,1.26,3.7,2.81,3.7s2.81-1.66,2.81-3.7V22.2C175.52,20.15,174.26,18.5,172.71,18.5Zm14-9.25c-1.55,0-2.81,1.66-2.81,3.7V72.14c0,2,1.26,3.7,2.81,3.7s2.81-1.66,2.81-3.7V12.95C189.56,10.9,188.3,9.25,186.75,9.25Zm14,25.89c-1.55,0-2.81,1.66-2.81,3.7V98c0,2,1.26,3.7,2.81,3.7s2.81-1.66,2.81-3.7V38.84C203.6,36.8,202.35,35.14,200.8,35.14Zm14-9.25c-1.55,0-2.81,1.66-2.81,3.7V88.78c0,2,1.26,3.7,2.81,3.7s2.81-1.66,2.81-3.7V29.59C217.65,27.55,216.39,25.89,214.84,25.89Zm14-9.25c-1.55,0-2.81,1.66-2.81,3.7V79.53c0,2,1.26,3.7,2.81,3.7s2.81-1.66,2.81-3.7V20.35C231.69,18.3,230.43,16.65,228.88,16.65Zm14,18.5c-1.55,0-2.81,1.66-2.81,3.7V98c0,2,1.26,3.7,2.81,3.7s2.81-1.66,2.81-3.7V38.84C245.73,36.8,244.48,35.14,242.92,35.14Z"/><text class="cls-2" transform="translate(0 182.55)">borealisIT</text></svg>